<svg xmlns="http://www.w3.org/2000/svg" width="18.667" height="20" viewBox="0 0 18.667 20">
    <g data-name="Group 286">
        <g data-name="Group 285">
            <path data-name="Path 2905" d="M17.667 1.667H12V.333a.333.333 0 0 0-.382-.334L.854 1.586A1.006 1.006 0 0 0 0 2.575v14.849a1.006 1.006 0 0 0 .854.989l10.764 1.586a.327.327 0 0 0 .049 0 .333.333 0 0 0 .333-.333v-1.333h5.667a1 1 0 0 0 1-1V2.667a1 1 0 0 0-1-1zm-6.334.332v17.282L.952 17.754a.335.335 0 0 1-.285-.33V2.576a.335.335 0 0 1 .285-.33L11.333.719zM12 4.666h1.667v.667H12zm0 3.333h1.667v.667H12zm0 3.333h1.667v.667H12zm0 3.333h1.667v.667H12zm6 2.667a.334.334 0 0 1-.333.333H12v-1.666h4a.667.667 0 0 0 .667-.667v-.667a.667.667 0 0 0-.667-.666h-4v-1.333h4a.667.667 0 0 0 .667-.667v-.667a.667.667 0 0 0-.667-.667h-4V9.333h4a.667.667 0 0 0 .667-.667v-.667A.667.667 0 0 0 16 7.332h-4V5.999h4a.667.667 0 0 0 .667-.667v-.666A.667.667 0 0 0 16 3.999h-4V2.333h5.667a.334.334 0 0 1 .333.333v14.667zm-3.667-2v-.667H16v.667zm0-3.333v-.667H16v.667zm0-3.333v-.667H16v.667zm0-3.333v-.666H16v.667z"/>
            <path data-name="Path 2906" d="m5.433 9.998-2.022 2.455a.333.333 0 1 0 .514.424l1.939-2.354 2.213 2.688a.333.333 0 1 0 .514-.424l-2.3-2.788 2.3-2.788a.333.333 0 1 0-.514-.424L5.864 9.475 3.925 7.121a.333.333 0 1 0-.514.424z"/>
        </g>
    </g>
</svg>
