<svg xmlns="http://www.w3.org/2000/svg" width="22" height="22" viewBox="0 0 22 22">
    <g data-name="007-erp">
        <path data-name="Path 2632" d="M8.584 9.513a.323.323 0 0 0 0-.645H7.041a.322.322 0 0 0-.322.322v3.663a.322.322 0 0 0 .322.322h1.543a.323.323 0 0 0 0-.645H7.363v-1.187h1.108a.323.323 0 1 0 0-.645H7.364V9.513z"/>
        <path data-name="Path 2633" d="M12.192 10.134a1.313 1.313 0 0 0-1.337-1.283h-.984a.322.322 0 0 0-.322.322v3.696a.323.323 0 0 0 .645 0v-1.417l1.435 1.63a.322.322 0 1 0 .484-.426l-1.1-1.249a1.3 1.3 0 0 0 1.179-1.273zm-1.337.638H10.2V9.493h.659a.641.641 0 1 1 0 1.277z"/>
        <path data-name="Path 2634" d="M12.879 9.169v3.7a.323.323 0 0 0 .645 0v-1.285h.707a1.366 1.366 0 1 0 0-2.731h-1.029a.322.322 0 0 0-.323.316zm1.352.322a.721.721 0 1 1 0 1.442h-.7V9.488h.706z"/>
        <path data-name="Path 2635" d="m17.404 9.499 1.2-.919a.857.857 0 0 0 .263-1.027 8.517 8.517 0 0 0-.948-1.642.857.857 0 0 0-1.021-.286l-1.4.58a.2.2 0 0 1-.211-.029 6.485 6.485 0 0 0-.926-.687.322.322 0 1 0-.336.55 5.832 5.832 0 0 1 .834.618.85.85 0 0 0 .887.143l1.4-.58a.214.214 0 0 1 .255.073 7.874 7.874 0 0 1 .877 1.518.214.214 0 0 1-.064.257l-1.2.919a.85.85 0 0 0-.32.839 5.851 5.851 0 0 1 0 2.348.85.85 0 0 0 .32.839l1.2.919a.214.214 0 0 1 .064.257 7.872 7.872 0 0 1-.877 1.518.214.214 0 0 1-.255.073l-1.4-.58a.85.85 0 0 0-.887.143 5.772 5.772 0 0 1-2.027 1.172.851.851 0 0 0-.567.7l-.2 1.5a.214.214 0 0 1-.19.184 7.869 7.869 0 0 1-1.753 0 .214.214 0 0 1-.19-.184l-.2-1.5a.851.851 0 0 0-.567-.7 5.771 5.771 0 0 1-2.031-1.173.85.85 0 0 0-.887-.143l-1.4.58a.214.214 0 0 1-.255-.073 7.87 7.87 0 0 1-.877-1.518.214.214 0 0 1 .064-.257l1.2-.919a.85.85 0 0 0 .32-.839 5.851 5.851 0 0 1 0-2.348.85.85 0 0 0-.32-.839l-1.2-.919a.214.214 0 0 1-.064-.257 7.873 7.873 0 0 1 .877-1.518.214.214 0 0 1 .255-.073l1.4.58a.85.85 0 0 0 .887-.143 5.769 5.769 0 0 1 2.031-1.173.851.851 0 0 0 .567-.7l.2-1.5a.214.214 0 0 1 .19-.184 7.867 7.867 0 0 1 1.753 0 .214.214 0 0 1 .19.184l.2 1.5a.851.851 0 0 0 .567.7.322.322 0 1 0 .2-.612.2.2 0 0 1-.131-.17l-.2-1.5a.857.857 0 0 0-.758-.741 8.521 8.521 0 0 0-1.9 0 .857.857 0 0 0-.758.741l-.2 1.5a.2.2 0 0 1-.131.17 6.411 6.411 0 0 0-2.257 1.3.2.2 0 0 1-.211.029l-1.4-.58a.857.857 0 0 0-1.021.286 8.516 8.516 0 0 0-.948 1.642.857.857 0 0 0 .263 1.027l1.2.919a.2.2 0 0 1 .081.2 6.5 6.5 0 0 0 0 2.608.2.2 0 0 1-.081.2l-1.2.919a.857.857 0 0 0-.263 1.027 8.516 8.516 0 0 0 .948 1.642.857.857 0 0 0 1.021.286l1.4-.58a.2.2 0 0 1 .211.029 6.411 6.411 0 0 0 2.256 1.3.2.2 0 0 1 .131.17l.2 1.5a.857.857 0 0 0 .758.741 8.521 8.521 0 0 0 1.9 0 .857.857 0 0 0 .758-.741l.2-1.5a.2.2 0 0 1 .131-.17 6.412 6.412 0 0 0 2.257-1.3.2.2 0 0 1 .211-.029l1.4.58a.857.857 0 0 0 1.021-.286 8.521 8.521 0 0 0 .948-1.642.857.857 0 0 0-.263-1.027l-1.2-.919a.2.2 0 0 1-.081-.2 6.5 6.5 0 0 0 0-2.608.2.2 0 0 1 .08-.2z"/>
        <path data-name="Path 2636" d="M20.941 6.286a.322.322 0 0 0-.582.277A10.36 10.36 0 0 1 6.333 20.249a10.457 10.457 0 0 1-3.194-2.5l1.271.424a.322.322 0 0 0 .2-.611l-2.277-.766a.322.322 0 0 0-.421.351l.381 2.669a.322.322 0 0 0 .638-.091l-.213-1.489a11.1 11.1 0 0 0 3.33 2.588A11 11 0 0 0 20.941 6.286z"/>
        <path data-name="Path 2637" d="M.645 11a10.355 10.355 0 0 1 18.21-6.746l-1.27-.424a.322.322 0 0 0-.2.611l2.288.763a.322.322 0 0 0 .421-.351l-.381-2.669a.322.322 0 1 0-.638.091l.213 1.488A11 11 0 0 0 0 11a10.9 10.9 0 0 0 1.059 4.715.322.322 0 0 0 .582-.277A10.262 10.262 0 0 1 .645 11z"/>
    </g>
</svg>
